<?xml version="1.0" encoding="utf-8"?>
<!-- Generator: Adobe Illustrator 17.1.0, SVG Export Plug-In . SVG Version: 6.00 Build 0)  -->
<!DOCTYPE svg PUBLIC "-//W3C//DTD SVG 1.1//EN" "http://www.w3.org/Graphics/SVG/1.1/DTD/svg11.dtd">
<svg version="1.1" id="Layer_1" xmlns="http://www.w3.org/2000/svg" xmlns:xlink="http://www.w3.org/1999/xlink" x="0px" y="0px"
	 viewBox="0 0 612 792" enable-background="new 0 0 612 792" xml:space="preserve">
<g>
	<g>
		<polygon fill="#003366" points="231.9,179.4 81.4,266.3 81.4,333.6 231.9,246.7 382.5,333.6 382.5,266.3 		"/>
	</g>
	<g>
		<polygon fill="#990000" points="380.1,613.3 229.5,526.4 229.5,459 380.1,545.9 530.6,459 530.6,526.4 		"/>
	</g>
	<g>
		<polygon fill="#003366" points="81.4,351.3 231.9,264.4 290.7,298.1 140.1,385 140.1,559.4 81.4,525.1 		"/>
	</g>
	<g>
		<polygon fill="#003366" points="456.6,222.8 306,135.9 247.9,169.6 398.4,256.5 398.4,430.3 456.6,396.6 		"/>
	</g>
	<g>
		<polygon fill="#990000" points="156.1,569.2 156.1,395.4 214.2,361.7 214.2,535.5 364.8,622.4 306.6,656.1 		"/>
	</g>
	<g>
		<polygon fill="#003366" points="530.6,441.3 530.6,266.9 471.9,233.2 471.9,407 321.3,494.5 380.1,528.2 		"/>
	</g>
</g>
</svg>
