<?xml version="1.0" encoding="utf-8"?>
<!-- Generator: Adobe Illustrator 17.1.0, SVG Export Plug-In . SVG Version: 6.00 Build 0)  -->
<!DOCTYPE svg PUBLIC "-//W3C//DTD SVG 1.1//EN" "http://www.w3.org/Graphics/SVG/1.1/DTD/svg11.dtd">
<svg version="1.1" id="Layer_1" xmlns="http://www.w3.org/2000/svg" xmlns:xlink="http://www.w3.org/1999/xlink" x="0px" y="0px"
	 viewBox="0 0 100 100" enable-background="new 0 0 100 100" xml:space="preserve">
<g>
	<g>
		<polygon fill="#003366" points="37.9,14.6 13.3,28.8 13.3,39.8 37.9,25.6 62.5,39.8 62.5,28.8 		"/>
	</g>
	<g>
		<polygon fill="#003366" points="62.1,85.5 37.5,71.3 37.5,60.3 62.1,74.5 86.7,60.3 86.7,71.3 		"/>
	</g>
	<g>
		<polygon fill="#003366" points="13.3,42.7 37.9,28.5 47.5,34 22.9,48.2 22.9,76.7 13.3,71.1 		"/>
	</g>
	<g>
		<polygon fill="#003366" points="74.6,21.7 50,7.5 40.5,13 65.1,27.2 65.1,55.6 74.6,50.1 		"/>
	</g>
	<g>
		<polygon fill="#003366" points="25.5,78.3 25.5,49.9 35,44.4 35,72.8 59.6,87 50.1,92.5 		"/>
	</g>
	<g>
		<polygon fill="#003366" points="86.7,57.4 86.7,28.9 77.1,23.4 77.1,51.8 52.5,66.1 62.1,71.6 		"/>
	</g>
</g>
</svg>
